<svg width="14" height="14" viewBox="0 0 14 14" fill="none" xmlns="http://www.w3.org/2000/svg">
<mask id="mask0_0_4" style="mask-type:alpha" maskUnits="userSpaceOnUse" x="-3" y="-3" width="20" height="20">
<rect x="-2.33338" y="-2.33331" width="18.6666" height="18.6666" fill="#D9D9D9"/>
</mask>
<g mask="url(#mask0_0_4)">
<path d="M12.9111 13.9999L8.01108 9.09997C7.62219 9.41107 7.17497 9.65737 6.66942 9.83885C6.16387 10.0203 5.6259 10.1111 5.05554 10.1111C3.64258 10.1111 2.44688 9.62185 1.46844 8.64341C0.48948 7.66445 0 6.46849 0 5.05554C0 3.64258 0.48948 2.44662 1.46844 1.46766C2.44688 0.48922 3.64258 0 5.05554 0C6.46849 0 7.66445 0.48922 8.64341 1.46766C9.62185 2.44662 10.1111 3.64258 10.1111 5.05554C10.1111 5.6259 10.0203 6.16387 9.83885 6.66942C9.65737 7.17497 9.41107 7.62219 9.09997 8.01108L13.9999 12.9111L12.9111 13.9999ZM5.05554 8.55552C6.02775 8.55552 6.85427 8.21538 7.53508 7.53508C8.21538 6.85427 8.55552 6.02775 8.55552 5.05554C8.55552 4.08332 8.21538 3.2568 7.53508 2.57599C6.85427 1.8957 6.02775 1.55555 5.05554 1.55555C4.08332 1.55555 3.2568 1.8957 2.57599 2.57599C1.8957 3.2568 1.55555 4.08332 1.55555 5.05554C1.55555 6.02775 1.8957 6.85427 2.57599 7.53508C3.2568 8.21538 4.08332 8.55552 5.05554 8.55552Z" fill="#1C1B1F"/>
</g>
</svg>
