<svg width="33" height="33" viewBox="0 0 33 33" fill="none" xmlns="http://www.w3.org/2000/svg">
<mask id="mask0_0_48" style="mask-type:alpha" maskUnits="userSpaceOnUse" x="-6" y="-6" width="45" height="45">
<rect x="-5.5" y="-5.5" width="44" height="44" fill="#D9D9D9"/>
</mask>
<g mask="url(#mask0_0_48)">
<path d="M33 7.33333V29.3333C33 30.3417 32.6413 31.2052 31.9238 31.9238C31.2052 32.6413 30.3417 33 29.3333 33H3.66667C2.65833 33 1.79483 32.6413 1.07617 31.9238C0.358722 31.2052 0 30.3417 0 29.3333V3.66667C0 2.65833 0.358722 1.79483 1.07617 1.07617C1.79483 0.358722 2.65833 0 3.66667 0H25.6667L33 7.33333ZM29.3333 8.89167L24.1083 3.66667H3.66667V29.3333H29.3333V8.89167ZM16.5 27.5C18.0278 27.5 19.3264 26.9653 20.3958 25.8958C21.4653 24.8264 22 23.5278 22 22C22 20.4722 21.4653 19.1736 20.3958 18.1042C19.3264 17.0347 18.0278 16.5 16.5 16.5C14.9722 16.5 13.6736 17.0347 12.6042 18.1042C11.5347 19.1736 11 20.4722 11 22C11 23.5278 11.5347 24.8264 12.6042 25.8958C13.6736 26.9653 14.9722 27.5 16.5 27.5ZM5.5 12.8333H22V5.5H5.5V12.8333Z" fill="#1C1B1F"/>
</g>
</svg>
