<svg width="33" height="33" viewBox="0 0 33 33" fill="none" xmlns="http://www.w3.org/2000/svg">
<mask id="mask0_0_31" style="mask-type:alpha" maskUnits="userSpaceOnUse" x="-6" y="-5" width="44" height="44">
<rect x="-5.41692" y="-4.9655" width="43.3354" height="43.3354" fill="#D9D9D9"/>
</mask>
<g mask="url(#mask0_0_31)">
<path d="M3.61128 29.3416H6.13917L21.7128 13.768L19.1849 11.2401L3.61128 26.8138V29.3416ZM29.4319 11.1498L21.758 3.56614L24.2859 1.03824C24.978 0.346081 25.8285 0 26.8372 0C27.8448 0 28.6946 0.346081 29.3868 1.03824L31.9147 3.56614C32.6068 4.2583 32.968 5.09371 32.9981 6.07237C33.0282 7.04982 32.6971 7.88463 32.005 8.57679L29.4319 11.1498ZM26.8137 13.8131L7.67397 32.9529H0V25.279L19.1398 6.13918L26.8137 13.8131Z" fill="#1C1B1F"/>
</g>
</svg>
