<svg width="11" height="13" viewBox="0 0 11 13" fill="none" xmlns="http://www.w3.org/2000/svg">
<mask id="mask0_0_40" style="mask-type:alpha" maskUnits="userSpaceOnUse" x="-3" y="-3" width="17" height="18">
<rect x="-2.75" y="-2.0625" width="16.5" height="16.5" fill="#D9D9D9"/>
</mask>
<g mask="url(#mask0_0_40)">
<path d="M2.0625 12.375C1.68437 12.375 1.36079 12.2405 1.09175 11.9714C0.82225 11.7019 0.6875 11.3781 0.6875 11V2.0625H0V0.6875H3.4375V0H7.5625V0.6875H11V2.0625H10.3125V11C10.3125 11.3781 10.178 11.7019 9.90894 11.9714C9.63944 12.2405 9.31563 12.375 8.9375 12.375H2.0625ZM8.9375 2.0625H2.0625V11H8.9375V2.0625ZM3.4375 9.625H4.8125V3.4375H3.4375V9.625ZM6.1875 9.625H7.5625V3.4375H6.1875V9.625Z" fill="#1C1B1F"/>
</g>
</svg>
